<?xml version="1.0" encoding="utf-8"?>
<!-- Generator: Adobe Illustrator 22.1.0, SVG Export Plug-In . SVG Version: 6.00 Build 0)  -->
<svg version="1.1" id="Calque_1" xmlns="http://www.w3.org/2000/svg" xmlns:xlink="http://www.w3.org/1999/xlink" x="0px" y="0px"
	 viewBox="0 0 209.3 54.4" style="enable-background:new 0 0 209.3 54.4;" xml:space="preserve">
<style type="text/css">
	.st0{fill:#289908;}
	.st1{font-family:'BigNoodleTitling';}
	.st2{font-size:51.1818px;}
</style>
<title>logoMalicratie</title>
<g id="Nouveau_symbole">
	<path d="M40,7.7h-5.4v36.7h4.9L39,20.4l3.7,17.4h3.8l3.7-17.4l-0.5,24.1h4.9V7.7h-5.4l-4.6,21.6L40,7.7z"/>
	<path d="M63.8,31h5.6v13.5h4.9V14c0-4.2-2-6.3-5.9-6.3h-3.7c-3.9,0-5.9,2.1-5.9,6.3v30.5h4.9L63.8,31z M63.8,26.5V14.3
		c0-1.4,0.7-2.2,2.2-2.2h1.3c1.4,0,2.1,0.7,2.1,2.2v12.2H63.8z"/>
	<path d="M90.4,40h-6.8V7.7h-4.9v36.7h11.7V40z"/>
	<path d="M98.1,44.5V7.7h-4.9v36.7H98.1z"/>
	<path class="st0" d="M113.3,36.3v2c0,1.5-0.7,2.2-2,2.2h-1.2c-1.3,0-2-0.7-2-2.2V14.5c0-1.5,0.7-2.2,2-2.2h1c1.5,0,2.2,0.7,2.2,2.2
		v3.8h5v-4.2c0-4.2-2-6.3-6-6.3h-3.2c-4,0-6,2.1-6,6.3v24.6c0,4.2,2,6.3,6,6.3h3.2c4,0,6-2.1,6-6.3v-2.4H113.3z"/>
	<path class="st0" d="M122.2,45h5V30h3l3.3,15h4.7l-3.5-15.5c2-0.9,3-2.9,3-6.2v-9.2c0-4.3-1.9-6.4-5.7-6.4h-9.7V45z M127.2,12.3
		h3.3c1.5,0,2.2,0.9,2.2,2.7v8c0,1.8-0.7,2.7-2.2,2.7h-3.3V12.3z"/>
	<path class="st0" d="M146.5,31.4h5.7V45h5V14.2c0-4.3-2-6.4-6-6.4h-3.7c-4,0-6,2.1-6,6.4V45h5V31.4z M146.5,26.9V14.5
		c0-1.5,0.7-2.2,2.2-2.2h1.3c1.5,0,2.2,0.7,2.2,2.2v12.4L146.5,26.9z"/>
	<path class="st0" d="M174.3,12.3V7.8h-14.5v4.5h4.8V45h5V12.3H174.3z"/>
	<path class="st0" d="M182.1,45V7.8h-5V45L182.1,45z"/>
	<path class="st0" d="M199.2,45v-4.5h-7.4V28.1h6.5v-4.5h-6.5V12.3h7.4V7.8h-12.3V45L199.2,45z"/>
	<text transform="matrix(1 0 0 1 8.6221 45.4742)" class="st0 st1 st2">#</text>
</g>
</svg>
